<svg xmlns="http://www.w3.org/2000/svg" viewBox="0 0 144 144" fill="white">
	<path d="M94.784,67.548h-.007A4.594,4.594,0,0,1,91.529,66.2L77.748,52.357a4.6,4.6,0,0,1,.012-6.5l27.507-27.427L94.727,7.844A4.6,4.6,0,0,1,97.983,0h.007l41.422.074A4.6,4.6,0,0,1,144,4.681l-.073,41.445a4.6,4.6,0,0,1-7.851,3.237L125.536,38.78,98.028,66.207A4.593,4.593,0,0,1,94.784,67.548Z" />
	<path d="M49.216,67.548a4.593,4.593,0,0,1-3.244-1.341L18.464,38.78,7.924,49.363A4.6,4.6,0,0,1,.073,46.126L0,4.681A4.6,4.6,0,0,1,4.588.074L46.009,0h.008a4.6,4.6,0,0,1,3.256,7.844L38.733,18.427,66.241,45.854a4.6,4.6,0,0,1,.011,6.5L52.471,66.2a4.593,4.593,0,0,1-3.247,1.352Z" />
	<path d="M46.017,144h-.008l-41.421-.073A4.6,4.6,0,0,1,0,139.321L.073,97.875a4.6,4.6,0,0,1,7.851-3.238l10.54,10.583L45.972,77.793a4.593,4.593,0,0,1,3.244-1.341h.008a4.59,4.59,0,0,1,3.247,1.353L66.252,91.644a4.6,4.6,0,0,1-.011,6.5L38.733,125.573l10.54,10.583A4.6,4.6,0,0,1,46.017,144Z" />
	<path d="M97.983,144a4.6,4.6,0,0,1-3.256-7.844l10.54-10.583L77.76,98.146a4.6,4.6,0,0,1-.012-6.5L91.529,77.805a4.59,4.59,0,0,1,3.248-1.353h.007a4.6,4.6,0,0,1,3.244,1.341l27.508,27.427,10.54-10.583a4.6,4.6,0,0,1,7.851,3.238L144,139.321a4.6,4.6,0,0,1-4.588,4.606L97.99,144Z" />
</svg>
