<svg xmlns="http://www.w3.org/2000/svg" viewBox="0 0 144 144" fill="white">
	<path d="M144,72A72,72,0,1,1,72,0,72,72,0,0,1,144,72ZM62.619,85H80.046c-1.6-16.039,18.777-21.167,18.777-37.868,0-16.036-11.122-23.246-25.7-23.246-10.562,0-19.465,5.058-25.847,12.317L58.253,46.242c3.716-3.685,7.368-6.269,12.36-6.269,5.358,0,9.121,3,9.121,8.547C79.734,58.774,59.859,66.416,62.619,85Zm8.7,33c6.91,0,12.033-5.475,12.033-12.528,0-7.1-5.123-12.574-12.033-12.574s-12.033,5.473-12.033,12.574C59.283,112.52,64.406,118,71.316,118Z" />
</svg>
