<svg xmlns="http://www.w3.org/2000/svg" viewBox="0 0 144 144">
	<circle class="cls-1" cx="72" cy="72" r="72" fill="#FE8204" />
	<path d="M136.5,72A64.5,64.5,0,1,1,72,7.5,64.5,64.5,0,0,1,136.5,72ZM72,13a59,59,0,1,0,59,59A59,59,0,0,0,72,13Z" />
	<g>
		<rect x="31.079" y="76.193" width="36" height="12" transform="translate(-43.745 58.778) rotate(-45)" />
		<path d="M57.564,65.223a6,6,0,0,1,8.485,0L78.777,77.951a6,6,0,0,1,0,8.485h0a6,6,0,0,1-8.485,0L57.564,73.708a6,6,0,0,1,0-8.485h0" />
		<rect x="69.262" y="63.466" width="36" height="12" transform="translate(-23.561 82.05) rotate(-45)" />
		<path d="M85.053,54.528,102.2,71.675a2,2,0,0,0,3.346-.9l6.276-23.422a2,2,0,0,0-2.45-2.45L85.95,51.182A2,2,0,0,0,85.053,54.528Z" />
	</g>
</svg>
